<svg width="397" height="605" viewBox="0 0 397 605" fill="none" xmlns="http://www.w3.org/2000/svg">
<path d="M132.219 566.854H207.714C212.927 566.854 217.151 562.625 217.151 557.417C217.151 552.203 212.927 547.974 207.714 547.974H132.219C127.005 547.974 122.781 552.203 122.781 557.417C122.781 562.625 127.005 566.854 132.219 566.854Z" fill="#D12E50"/>
<path d="M141.656 47.7551C141.656 48.3749 141.594 48.9895 141.474 49.5989C141.354 50.2083 141.172 50.7968 140.938 51.3697C140.698 51.9426 140.411 52.4843 140.068 52.9999C139.719 53.5155 139.328 53.9947 138.891 54.4322C138.453 54.8697 137.979 55.2603 137.464 55.6041C136.948 55.9478 136.401 56.2395 135.828 56.4791C135.255 56.7135 134.667 56.8905 134.057 57.0155C133.453 57.1353 132.839 57.1926 132.219 57.1926C131.599 57.1926 130.984 57.1353 130.375 57.0155C129.771 56.8905 129.177 56.7135 128.609 56.4791C128.036 56.2395 127.49 55.9478 126.974 55.6041C126.458 55.2603 125.984 54.8697 125.547 54.4322C125.109 53.9947 124.714 53.5155 124.37 52.9999C124.026 52.4843 123.734 51.9426 123.5 51.3697C123.26 50.7968 123.083 50.2083 122.964 49.5989C122.844 48.9895 122.781 48.3749 122.781 47.7551C122.781 47.1353 122.844 46.526 122.964 45.9166C123.083 45.3072 123.26 44.7187 123.5 44.1458C123.734 43.5728 124.026 43.0312 124.37 42.5155C124.714 41.9999 125.109 41.5208 125.547 41.0833C125.984 40.6458 126.458 40.2551 126.974 39.9114C127.49 39.5676 128.036 39.276 128.609 39.0364C129.177 38.802 129.771 38.6197 130.375 38.4999C130.984 38.3801 131.599 38.3176 132.219 38.3176C132.839 38.3176 133.453 38.3801 134.057 38.4999C134.667 38.6197 135.255 38.802 135.828 39.0364C136.401 39.276 136.948 39.5676 137.464 39.9114C137.979 40.2551 138.453 40.6458 138.891 41.0833C139.328 41.5208 139.719 41.9999 140.068 42.5155C140.411 43.0312 140.698 43.5728 140.938 44.1458C141.172 44.7187 141.354 45.3072 141.474 45.9166C141.594 46.526 141.656 47.1353 141.656 47.7551Z" fill="#D12E50"/>
<path d="M179.406 47.7551C179.406 48.3749 179.344 48.9895 179.224 49.5989C179.104 50.2083 178.922 50.7968 178.688 51.3697C178.448 51.9426 178.156 52.4843 177.813 52.9999C177.469 53.5155 177.078 53.9947 176.641 54.4322C176.203 54.8697 175.724 55.2603 175.208 55.6041C174.693 55.9478 174.151 56.2395 173.578 56.4791C173.005 56.7135 172.417 56.8905 171.807 57.0155C171.198 57.1353 170.589 57.1926 169.969 57.1926C169.349 57.1926 168.734 57.1353 168.125 57.0155C167.521 56.8905 166.927 56.7135 166.354 56.4791C165.781 56.2395 165.24 55.9478 164.724 55.6041C164.208 55.2603 163.734 54.8697 163.292 54.4322C162.854 53.9947 162.464 53.5155 162.12 52.9999C161.776 52.4843 161.484 51.9426 161.25 51.3697C161.01 50.7968 160.833 50.2083 160.714 49.5989C160.589 48.9895 160.531 48.3749 160.531 47.7551C160.531 47.1353 160.589 46.526 160.714 45.9166C160.833 45.3072 161.01 44.7187 161.25 44.1458C161.484 43.5728 161.776 43.0312 162.12 42.5155C162.464 41.9999 162.854 41.5208 163.292 41.0833C163.734 40.6458 164.208 40.2551 164.724 39.9114C165.24 39.5676 165.781 39.276 166.354 39.0364C166.927 38.802 167.521 38.6197 168.125 38.4999C168.734 38.3801 169.349 38.3176 169.969 38.3176C170.589 38.3176 171.198 38.3801 171.807 38.4999C172.417 38.6197 173.005 38.802 173.578 39.0364C174.151 39.276 174.693 39.5676 175.208 39.9114C175.724 40.2551 176.203 40.6458 176.641 41.0833C177.078 41.5208 177.469 41.9999 177.813 42.5155C178.156 43.0312 178.448 43.5728 178.688 44.1458C178.922 44.7187 179.104 45.3072 179.224 45.9166C179.344 46.526 179.406 47.1353 179.406 47.7551Z" fill="#D12E50"/>
<path d="M217.151 47.7551C217.151 48.3749 217.094 48.9895 216.974 49.5989C216.849 50.2083 216.672 50.7968 216.432 51.3697C216.198 51.9426 215.906 52.4843 215.563 52.9999C215.219 53.5155 214.828 53.9947 214.391 54.4322C213.953 54.8697 213.474 55.2603 212.958 55.6041C212.443 55.9478 211.901 56.2395 211.328 56.4791C210.755 56.7135 210.167 56.8905 209.557 57.0155C208.948 57.1353 208.333 57.1926 207.714 57.1926C207.094 57.1926 206.484 57.1353 205.875 57.0155C205.266 56.8905 204.677 56.7135 204.104 56.4791C203.531 56.2395 202.99 55.9478 202.474 55.6041C201.958 55.2603 201.479 54.8697 201.042 54.4322C200.604 53.9947 200.214 53.5155 199.87 52.9999C199.526 52.4843 199.234 51.9426 198.995 51.3697C198.76 50.7968 198.583 50.2083 198.458 49.5989C198.339 48.9895 198.281 48.3749 198.281 47.7551C198.281 47.1353 198.339 46.526 198.458 45.9166C198.583 45.3072 198.76 44.7187 198.995 44.1458C199.234 43.5728 199.526 43.0312 199.87 42.5155C200.214 41.9999 200.604 41.5208 201.042 41.0833C201.479 40.6458 201.958 40.2551 202.474 39.9114C202.99 39.5676 203.531 39.276 204.104 39.0364C204.677 38.802 205.266 38.6197 205.875 38.4999C206.484 38.3801 207.094 38.3176 207.714 38.3176C208.333 38.3176 208.948 38.3801 209.557 38.4999C210.167 38.6197 210.755 38.802 211.328 39.0364C211.901 39.276 212.443 39.5676 212.958 39.9114C213.474 40.2551 213.953 40.6458 214.391 41.0833C214.828 41.5208 215.219 41.9999 215.563 42.5155C215.906 43.0312 216.198 43.5728 216.432 44.1458C216.672 44.7187 216.849 45.3072 216.974 45.9166C217.094 46.526 217.151 47.1353 217.151 47.7551Z" fill="#D12E50"/>
<path d="M151.094 453.594C151.094 474.443 167.995 491.349 188.844 491.349H339.839C360.682 491.349 377.583 474.443 377.583 453.594V302.583C377.583 281.734 360.682 264.833 339.839 264.833H188.844C167.995 264.833 151.094 281.734 151.094 302.583V453.594ZM169.969 302.583C169.969 292.177 178.432 283.708 188.844 283.708H339.839C350.245 283.708 358.708 292.177 358.708 302.583V453.594C358.708 464.005 350.245 472.469 339.839 472.469H188.844C178.432 472.469 169.969 464.005 169.969 453.594V302.583Z" fill="#D12E50"/>
<path d="M246.13 245.958C266.604 245.958 283.214 229.349 283.214 208.865V150.917C283.214 130.432 266.604 113.823 246.13 113.823H188.177C167.698 113.823 151.094 130.432 151.094 150.917V208.865C151.094 229.349 167.698 245.958 188.177 245.958H246.13ZM169.969 208.865V150.917C169.969 140.87 178.135 132.698 188.177 132.698H246.13C256.172 132.698 264.339 140.87 264.339 150.917V208.865C264.339 218.912 256.172 227.083 246.13 227.083H188.177C178.135 227.083 169.969 218.912 169.969 208.865Z" fill="#D12E50"/>
<mask id="mask0_275_954" style="mask-type:luminance" maskUnits="userSpaceOnUse" x="0" y="0" width="341" height="605">
<path d="M0.098999 0.552002H340.656V604.62H0.098999V0.552002Z" fill="white"/>
</mask>
<g mask="url(#mask0_275_954)">
<path d="M37.5209 604.604H302.417C323.083 604.604 339.839 587.703 339.839 566.854V510.224H18.974V94.9478H320.964V133.391C323.443 132.969 339.839 132.698 339.839 132.698V38.3176C339.839 17.4687 323.083 0.567627 302.417 0.567627H37.5209C16.849 0.567627 0.098999 17.4687 0.098999 38.3176V566.854C0.098999 587.703 16.849 604.604 37.5209 604.604ZM18.974 38.3176C18.974 27.9114 27.2969 19.4426 37.5209 19.4426H302.417C312.641 19.4426 320.964 27.9114 320.964 38.3176V76.0728H18.974V38.3176ZM18.974 529.099H320.964V566.854C320.964 577.26 312.641 585.729 302.417 585.729H37.5209C27.2969 585.729 18.974 577.26 18.974 566.854V529.099Z" fill="#D12E50"/>
</g>
<mask id="mask1_275_954" style="mask-type:luminance" maskUnits="userSpaceOnUse" x="301" y="150" width="96" height="97">
<path d="M301.99 150.99H396.458V246.99H301.99V150.99Z" fill="white"/>
</mask>
<g mask="url(#mask1_275_954)">
<path d="M302.089 178.068V219.464C302.089 234.094 313.948 245.958 328.573 245.958H369.974C384.599 245.958 396.458 234.094 396.458 219.464V178.068C396.458 163.438 384.599 151.578 369.974 151.578H328.573C313.948 151.578 302.089 163.438 302.089 178.068ZM377.583 178.068V219.464C377.583 223.661 374.172 227.083 369.974 227.083H328.573C324.375 227.083 320.964 223.661 320.964 219.464V178.068C320.964 173.87 324.375 170.453 328.573 170.453H369.974C374.172 170.453 377.583 173.87 377.583 178.068Z" fill="#D12E50"/>
</g>
<path d="M64.3334 264.833C49.7084 264.833 37.849 276.698 37.849 291.328V332.719C37.849 347.354 49.7084 359.213 64.3334 359.213H105.729C120.359 359.213 132.219 347.354 132.219 332.719V291.328C132.219 276.698 120.359 264.833 105.729 264.833H64.3334ZM113.344 291.328V332.719C113.344 336.917 109.927 340.338 105.729 340.338H64.3334C60.1355 340.338 56.7188 336.917 56.7188 332.719V291.328C56.7188 287.125 60.1355 283.708 64.3334 283.708H105.729C109.927 283.708 113.344 287.125 113.344 291.328Z" fill="#D12E50"/>
</svg>
