<svg width="611" height="540" viewBox="0 0 611 540" fill="none" xmlns="http://www.w3.org/2000/svg">
<mask id="mask0_275_953" style="mask-type:luminance" maskUnits="userSpaceOnUse" x="197" y="0" width="217" height="205">
<path d="M197.99 0.573242H413.99V204.99H197.99V0.573242Z" fill="white"/>
</mask>
<g mask="url(#mask0_275_953)">
<path d="M276.672 78.8441C279.38 78.4482 281.708 76.7503 282.922 74.3076L305.937 27.6305L328.953 74.3024C330.161 76.7503 332.495 78.4482 335.198 78.8441L386.667 86.3337L349.427 122.651C347.469 124.552 346.578 127.302 347.036 129.995L355.833 181.297L309.797 157.078C307.38 155.813 304.5 155.813 302.078 157.078L256.042 181.297L264.838 129.995C265.297 127.302 264.401 124.552 262.448 122.651L225.203 86.3337L276.672 78.8441ZM247.755 131.49L236.859 195.063C236.328 198.172 237.599 201.313 240.156 203.172C242.719 205.032 246.099 205.266 248.891 203.808L305.937 173.797L362.984 203.808C364.198 204.438 365.521 204.756 366.844 204.756C368.557 204.756 370.266 204.224 371.713 203.172C374.271 201.313 375.547 198.172 375.016 195.063L364.114 131.49L410.271 86.4795C412.531 84.2712 413.344 80.9743 412.37 77.9743C411.396 74.9639 408.802 72.7816 405.677 72.3232L341.891 63.0472L313.37 5.21387C311.974 2.38574 309.094 0.588867 305.937 0.588867C302.786 0.588867 299.906 2.38574 298.5 5.20866L269.979 63.0472L206.193 72.3232C203.073 72.7816 200.479 74.9639 199.505 77.9743C198.526 80.9743 199.338 84.2712 201.599 86.4795L247.755 131.49Z" fill="#E1BE09"/>
</g>
<mask id="mask1_275_953" style="mask-type:luminance" maskUnits="userSpaceOnUse" x="0" y="94" width="611" height="446">
<path d="M0.979126 94.3232H610.766V539.849H0.979126V94.3232Z" fill="white"/>
</mask>
<g mask="url(#mask1_275_953)">
<path d="M444.609 180.964C444.609 142.365 475.995 110.974 514.562 110.974C553.13 110.974 584.51 142.365 584.51 180.964C584.51 219.558 553.13 250.953 514.562 250.953C475.995 250.953 444.609 219.558 444.609 180.964ZM386.51 463.162C382.24 467.328 376.969 470.485 371.276 472.292L323.161 487.542C326.406 478.672 326.547 469.058 323.443 459.953C321.37 453.865 318.021 448.485 313.646 444.078L350.937 431.162C361.224 427.594 369.906 420.969 376.057 412.011L422.406 344.485V428.162L386.51 463.162ZM27.3645 180.964C27.3645 142.365 58.7395 110.974 97.3072 110.974C135.88 110.974 167.26 142.365 167.26 180.964C167.26 219.558 135.88 250.953 97.3072 250.953C58.7395 250.953 27.3645 219.558 27.3645 180.964ZM553.359 258.318C581.635 244.063 601.089 214.755 601.089 180.964C601.089 133.224 562.271 94.3752 514.562 94.3752C466.849 94.3752 428.031 133.224 428.031 180.964C428.031 215.391 448.219 245.183 477.37 259.125C461.365 266.334 447.75 277.922 438.078 292.386C437.99 292.5 437.896 292.61 437.812 292.735L362.391 402.61C358.26 408.636 352.417 413.089 345.505 415.479L295.458 432.813L213.182 394.677C210.245 393.313 208.13 390.724 207.38 387.573L192.469 324.719C185.172 293.974 163.812 269.808 136.141 258.302C164.401 244.037 183.844 214.74 183.844 180.964C183.844 133.224 145.026 94.3752 97.3072 94.3752C49.5989 94.3752 10.7864 133.224 10.7864 180.964C10.7864 215.172 30.7187 244.802 59.5677 258.86C25.5989 273.63 1.7812 307.511 1.7812 346.875V531.542C1.7812 536.12 5.48954 539.834 10.0677 539.834C14.651 539.834 18.3593 536.12 18.3593 531.542V346.875C18.3593 303.13 53.9166 267.552 97.6302 267.552H99.2135C136.099 267.552 167.818 292.636 176.344 328.558L191.25 391.407C193.177 399.532 198.625 406.209 206.203 409.729L294.62 450.703C300.865 453.599 305.531 458.787 307.745 465.297C309.969 471.823 309.437 478.771 305.958 485.448C303.078 490.979 298.323 495.032 292.818 497.157L290.109 498.016C285.422 499.24 280.359 499.146 275.531 497.433L173.958 461.469C160.375 456.651 149.797 445.532 145.672 431.714L122.578 354.375C121.276 349.985 116.672 347.495 112.26 348.808C107.875 350.115 105.38 354.74 106.698 359.136L129.786 436.464C134.849 453.417 147.026 467.38 162.901 474.818V531.542C162.901 536.12 166.615 539.834 171.193 539.834C175.771 539.834 179.484 536.12 179.484 531.542V481.032L270 513.078C277.599 515.771 285.568 516.078 293.042 514.328C293.536 514.271 294.026 514.177 294.516 514.021L376.281 488.104C384.432 485.526 391.974 481.005 398.089 475.042L422.406 451.328V531.542C422.406 536.12 426.125 539.834 430.703 539.834C435.281 539.834 438.984 536.12 438.984 531.542V344.005C438.984 301.844 473.266 267.552 515.396 267.552H517.109C559.24 267.552 593.521 301.844 593.521 344.005V531.542C593.521 536.12 597.229 539.834 601.807 539.834C606.385 539.834 610.099 536.12 610.099 531.542V344.005C610.099 305.563 586.672 272.49 553.359 258.318Z" fill="#E1BE09"/>
</g>
<mask id="mask2_275_953" style="mask-type:luminance" maskUnits="userSpaceOnUse" x="524" y="358" width="20" height="182">
<path d="M524.656 358.323H543.323V539.849H524.656V358.323Z" fill="white"/>
</mask>
<g mask="url(#mask2_275_953)">
<path d="M534.073 359.162C529.495 359.162 525.786 362.875 525.786 367.459V531.542C525.786 536.12 529.495 539.834 534.073 539.834C538.661 539.834 542.37 536.12 542.37 531.542V367.459C542.37 362.875 538.661 359.162 534.073 359.162Z" fill="#E1BE09"/>
</g>
</svg>
