<svg width="512" height="512" viewBox="0 0 512 512" fill="none" xmlns="http://www.w3.org/2000/svg">
<path d="M176.222 383C146.417 383 124.595 376.283 110.757 362.849C96.9191 349.415 90 331.847 90 310.145C90 286.377 100.645 267.259 121.934 252.792C143.223 237.98 171.612 229.54 207.092 227.473C210.646 227.129 213.839 226.957 216.672 226.957C219.865 226.613 222.887 226.268 225.72 225.923C236.013 224.89 242.58 222.996 245.413 220.24C248.606 217.485 249.851 213.006 249.138 206.805L248.074 195.955C246.306 182.176 242.4 171.842 236.365 164.953C230.339 157.719 221.11 154.102 208.688 154.102C197.34 154.102 187.76 157.202 179.948 163.403C172.496 169.603 168.067 178.732 166.642 190.788C164.513 199.744 160.616 206.461 154.933 210.939C149.258 215.418 141.275 217.656 130.982 217.656C124.595 217.656 118.921 215.418 113.951 210.939C108.989 206.461 106.499 200.433 106.499 192.855C106.499 179.076 111.822 166.675 122.466 155.652C133.472 144.63 148.014 136.018 166.11 129.817C184.566 123.273 204.791 120 226.784 120C249.499 120 267.766 123.445 281.604 130.334C295.443 137.224 305.735 147.041 312.474 159.786C319.574 172.187 324.364 188.033 326.844 207.322L339.086 300.328C340.863 311.696 342.992 319.446 345.473 323.58C348.314 327.369 352.04 329.263 356.649 329.263C359.491 329.263 361.8 328.747 363.569 327.713C365.698 326.68 367.655 325.475 369.423 324.096C370.488 323.408 371.552 322.719 372.617 322.029C373.681 320.996 374.926 320.479 376.342 320.479C383.09 320.479 386.455 324.613 386.455 332.88C386.455 340.114 383.974 347.52 379.003 355.098C374.042 362.332 367.123 368.532 358.246 373.699C349.73 378.522 340.15 380.933 329.505 380.933C314.603 380.933 303.074 377.833 294.91 371.633C287.107 365.088 281.072 355.615 276.814 343.214C276.463 341.837 275.75 340.631 274.685 339.597C273.982 338.564 273.089 338.047 272.024 338.047C270.96 338.047 269.011 339.942 266.17 343.731C258.367 354.065 248.074 363.194 235.3 371.116C222.526 379.039 202.834 383 176.222 383ZM211.882 340.631C221.462 340.631 230.158 337.875 237.961 332.363C246.125 326.852 252.16 319.274 256.057 309.629C259.963 299.64 261.028 288.444 259.251 276.043L258.186 269.843C257.483 265.709 256.418 262.437 254.993 260.026C253.576 257.615 251.267 255.892 248.074 254.859C244.88 253.825 240.271 253.308 234.236 253.308C232.467 253.308 230.69 253.308 228.913 253.308C227.145 253.308 225.368 253.308 223.591 253.308C204.791 253.308 190.953 257.27 182.077 265.193C173.561 273.116 169.303 283.794 169.303 297.228C169.303 311.351 173.029 322.202 180.48 329.78C187.931 337.014 198.405 340.631 211.882 340.631ZM431 280.464C431 282.189 430.827 283.898 430.48 285.59C430.133 287.282 429.62 288.924 428.94 290.518C428.26 292.112 427.426 293.626 426.439 295.06C425.452 296.495 424.33 297.822 423.073 299.042C421.817 300.262 420.45 301.351 418.972 302.309C417.495 303.268 415.935 304.077 414.293 304.737C412.652 305.397 410.96 305.896 409.217 306.232C407.474 306.569 405.714 306.737 403.937 306.737C402.16 306.737 400.4 306.569 398.657 306.232C396.914 305.896 395.222 305.397 393.581 304.737C391.939 304.077 390.379 303.268 388.902 302.309C387.424 301.351 386.057 300.262 384.801 299.042C383.544 297.822 382.423 296.495 381.435 295.06C380.448 293.626 379.614 292.112 378.934 290.518C378.254 288.924 377.741 287.282 377.394 285.59C377.048 283.898 376.874 282.189 376.874 280.464C376.874 278.739 377.048 277.03 377.394 275.338C377.741 273.647 378.254 272.004 378.934 270.41C379.614 268.816 380.448 267.302 381.435 265.868C382.423 264.433 383.544 263.106 384.801 261.886C386.057 260.667 387.424 259.577 388.902 258.619C390.379 257.661 391.939 256.851 393.581 256.191C395.222 255.531 396.914 255.033 398.657 254.696C400.4 254.359 402.16 254.191 403.937 254.191C405.714 254.191 407.474 254.36 409.217 254.696C410.96 255.033 412.652 255.531 414.293 256.191C415.935 256.851 417.495 257.661 418.972 258.619C420.45 259.577 421.817 260.667 423.073 261.886C424.33 263.106 425.452 264.433 426.439 265.868C427.426 267.302 428.26 268.816 428.94 270.41C429.62 272.004 430.133 273.647 430.48 275.338C430.827 277.03 431 278.739 431 280.464Z" fill="white"/>
</svg>
