<svg width="565" height="588" viewBox="0 0 565 588" fill="none" xmlns="http://www.w3.org/2000/svg">
<mask id="mask0_275_876" style="mask-type:luminance" maskUnits="userSpaceOnUse" x="0" y="0" width="565" height="588">
<path d="M0.65625 0.442871H564.151V587.485H0.65625V0.442871Z" fill="white"/>
</mask>
<g mask="url(#mask0_275_876)">
<path d="M235.271 584.656C237.141 586.5 239.625 587.484 242.161 587.484C243.292 587.484 244.432 587.287 245.531 586.886L465.786 506.156C468.047 505.328 469.922 503.693 471.057 501.568L486.573 472.438L498.089 472.99C498.245 473 498.401 473.005 498.563 473.005C502.016 473.005 505.234 471.177 507 468.182L553.802 388.667C553.849 388.583 553.875 388.49 553.922 388.406C554.094 388.094 554.229 387.771 554.365 387.443C554.479 387.167 554.599 386.896 554.688 386.62C554.786 386.313 554.844 386 554.906 385.693C554.974 385.38 555.047 385.073 555.078 384.761C555.115 384.448 555.109 384.136 555.115 383.823C555.115 383.511 555.13 383.203 555.104 382.896C555.078 382.573 555.01 382.261 554.953 381.943C554.896 381.636 554.849 381.333 554.76 381.031C554.677 380.74 554.557 380.458 554.448 380.177C554.323 379.854 554.203 379.531 554.042 379.224C553.995 379.136 553.974 379.047 553.927 378.958L541.76 357.037L562.365 323.823C562.432 323.724 562.464 323.615 562.516 323.516C562.698 323.203 562.849 322.875 562.99 322.547C563.109 322.276 563.229 322.011 563.318 321.734C563.422 321.422 563.495 321.104 563.563 320.781C563.63 320.469 563.703 320.162 563.74 319.849C563.776 319.547 563.781 319.245 563.792 318.943C563.802 318.594 563.802 318.25 563.776 317.906C563.766 317.781 563.786 317.667 563.771 317.542L540.859 119.891C540.427 116.193 537.943 113.068 534.443 111.807L225.813 0.979266C225.698 0.942808 225.583 0.93239 225.469 0.895933C225.12 0.781349 224.771 0.703224 224.417 0.630308C224.13 0.573016 223.844 0.515724 223.557 0.484475C223.208 0.448016 222.87 0.442808 222.526 0.442808C222.229 0.442808 221.943 0.4376 221.651 0.463641C221.313 0.494891 220.979 0.552183 220.646 0.619891C220.365 0.671975 220.083 0.724058 219.807 0.807391C219.474 0.901142 219.156 1.02614 218.839 1.15114C218.583 1.25531 218.323 1.35947 218.078 1.48447C217.766 1.64072 217.474 1.82822 217.177 2.02093C216.943 2.17197 216.708 2.32302 216.484 2.49489C216.219 2.70322 215.974 2.93239 215.729 3.17197C215.505 3.38031 215.292 3.59385 215.089 3.82822C214.885 4.06781 214.698 4.32302 214.516 4.58864C214.318 4.86989 214.135 5.14593 213.964 5.44802C213.901 5.5626 213.823 5.65114 213.76 5.76572L167.938 96.1095C167.391 97.1876 167.052 98.3543 166.927 99.5574L165 118.807L116.432 112.396C116.234 112.375 116.036 112.396 115.839 112.38C115.688 112.37 115.542 112.37 115.391 112.365C114.88 112.354 114.375 112.375 113.88 112.443C113.781 112.453 113.688 112.474 113.589 112.49C113.057 112.578 112.536 112.703 112.031 112.875C111.948 112.901 111.87 112.938 111.792 112.964C111.286 113.151 110.797 113.37 110.333 113.636C110.245 113.682 110.167 113.745 110.078 113.797C109.625 114.073 109.198 114.375 108.797 114.719C108.719 114.781 108.651 114.854 108.573 114.927C108.167 115.292 107.797 115.688 107.458 116.12C107.411 116.182 107.365 116.245 107.318 116.313C106.969 116.781 106.667 117.276 106.401 117.807C106.391 117.833 106.37 117.854 106.359 117.88L65.3594 202.943C64.099 205.547 64.0677 208.589 65.2656 211.224L80.6719 245.203L50.5313 251.208C47.4844 251.818 44.901 253.839 43.5833 256.656L2.18229 345.021C0.427082 348.766 1.21875 353.214 4.16667 356.125L235.271 584.656ZM166.219 138.708L164.604 154.62C164.604 154.63 164.604 154.636 164.604 154.641L160.635 193.776L128.745 133.766L166.219 138.708ZM542.922 307.771L451.25 275.188L449.63 215.766L535.927 247.417L542.922 307.771ZM146.755 365.219L183.443 437.781L159.781 482.474L92.5625 416L126.63 344.917L146.755 365.219ZM171.552 215.563L207.76 150.734L205.182 195.031L166.911 261.313L171.552 215.563ZM218.417 192.448L221.911 132.261L322.573 169.172V229.464L218.417 192.448ZM222.703 118.656L225.167 76.2657L322.573 111.771V155.281L222.703 118.656ZM214.552 204.917L319.75 242.307L276.797 322.146C276.599 322.521 276.568 322.922 276.443 323.313L167.016 287.245L214.552 204.917ZM364.323 463.797L360.708 460.807L372.068 461.193L364.323 463.797ZM341.938 460.182C342.208 461.625 342.88 463.005 344.104 464.016L349.76 468.693L284.063 490.781L246.208 456.974L341.938 460.182ZM207.089 442.609L247.484 368.234L342.37 376.625L306.672 445.948L207.089 442.609ZM247.797 355.167L228.776 321.339L362.151 365.297L247.797 355.167ZM210.396 315.281L236.339 361.417L196.526 434.719L159.458 361.422L187.688 307.792L210.396 315.281ZM190.682 451.995C190.792 452.188 190.927 452.354 191.052 452.531C191.151 452.672 191.229 452.818 191.339 452.948C191.833 453.537 192.417 454.021 193.073 454.396C193.12 454.427 193.151 454.479 193.203 454.511C193.411 454.62 193.635 454.672 193.849 454.761C194.078 454.854 194.302 454.958 194.542 455.026C194.911 455.13 195.281 455.177 195.656 455.219C195.807 455.234 195.948 455.287 196.099 455.292L227.245 456.333C227.599 457.344 228.109 458.302 228.964 459.063L274.458 499.698L241.943 563.724L169.474 492.063L190.682 451.995ZM287.156 503.511L349.604 482.516L320.026 538.74L257.656 561.599L287.156 503.511ZM367.521 476.49L401.172 465.177C402.708 464.656 403.87 463.578 404.635 462.281L411.557 462.516C411.573 462.516 411.583 462.521 411.599 462.521C411.609 462.521 411.62 462.516 411.625 462.516L424.161 462.938L398.839 509.854L338.297 532.042L367.521 476.49ZM321.104 446.432L356.406 377.865L416.365 383.167L440.25 391.037L407.844 449.339L321.104 446.432ZM288.802 327.386L332.193 246.729L435.578 283.469L394.422 362.198L288.802 327.386ZM438.057 270.505L335.625 234.099V173.958L436.438 210.927L438.057 270.505ZM335.63 160.068V116.531L434.854 152.698L436.057 196.896L335.63 160.068ZM335.63 102.641V61.2084L433.318 96.2866L434.469 138.672L335.63 102.641ZM322.573 97.8803L225.958 62.6616L228.281 22.6668L322.573 56.5209V97.8803ZM212.557 68.1251L184.802 117.589L186.229 103.328L213.656 49.2605L212.557 68.1251ZM177.453 157.359L210.828 97.8803L209.495 120.854L174.87 182.859L177.453 157.359ZM158.271 217.136L150.859 290.276C150.781 291.063 150.854 291.833 151.047 292.563C151.083 292.714 151.177 292.839 151.229 292.984C151.432 293.589 151.688 294.156 152.052 294.672C152.203 294.891 152.406 295.057 152.583 295.255C152.948 295.656 153.333 296.016 153.792 296.318C153.906 296.396 153.974 296.511 154.094 296.583C154.375 296.745 154.672 296.828 154.969 296.943C155.089 296.99 155.182 297.078 155.307 297.125L175.115 303.651L152.234 347.13L119.719 282.823L155.141 211.245L158.271 217.136ZM82.7396 406.292L22.849 347.068L56.8438 274.511L116.875 335.078L82.7396 406.292ZM417.328 503.073L438.729 463.427L468.656 464.427L455.531 489.073L417.328 503.073ZM422.5 449.828L452.87 395.198L498.948 410.386C499.625 410.609 500.318 410.719 500.995 410.719C503.208 410.719 505.333 409.589 506.547 407.625L518.255 388.745L530.63 389.427L493.677 452.214L422.5 449.828ZM528.13 372.823L530.078 376.333L526.094 376.115L528.13 372.823ZM522.094 351.609C522.026 351.714 521.99 351.833 521.927 351.943C521.75 352.255 521.599 352.573 521.458 352.901C521.339 353.177 521.224 353.453 521.13 353.734C521.031 354.037 520.958 354.349 520.891 354.662C520.823 354.969 520.755 355.276 520.719 355.589C520.682 355.896 520.672 356.208 520.667 356.521C520.656 356.833 520.651 357.151 520.672 357.464C520.693 357.771 520.745 358.078 520.802 358.391C520.854 358.708 520.911 359.021 520.995 359.333C521.01 359.391 521.016 359.448 521.031 359.505L498.161 396.386L406.99 366.339L448 287.88L541.099 320.969L522.094 351.609ZM534.245 232.901L449.245 201.734L448.042 157.511L528.922 186.99L534.245 232.901ZM447.661 143.479L446.505 101.021L522.104 128.172L527.245 172.49L447.661 143.479ZM117.359 140.156L147.599 197.052L112.359 268.266L104.458 252.641C104.458 252.526 104.464 252.412 104.464 252.297C104.458 251.938 104.401 251.578 104.359 251.214C104.328 250.969 104.339 250.729 104.286 250.479C104.281 250.438 104.26 250.406 104.25 250.365C104.188 250.057 104.068 249.755 103.969 249.448C103.865 249.115 103.776 248.771 103.635 248.453C103.62 248.422 103.615 248.386 103.604 248.354L84.9948 207.318L117.359 140.156ZM127.615 327.37L68.3854 267.609L94.7396 262.354L127.615 327.37Z" fill="#8620CD"/>
</g>
</svg>
