<svg width="208" height="61" viewBox="0 0 208 61" fill="none" xmlns="http://www.w3.org/2000/svg">
<path d="M167.353 60.9997C162.598 60.9997 159.116 59.8953 156.909 57.6864C154.701 55.4775 153.597 52.5889 153.597 49.0207C153.597 45.1126 155.295 41.9692 158.692 39.5903C162.088 37.1549 166.617 35.7672 172.278 35.4274C172.845 35.3708 173.354 35.3425 173.806 35.3425C174.316 35.2859 174.798 35.2293 175.25 35.1725C176.892 35.0026 177.94 34.6912 178.391 34.238C178.901 33.785 179.1 33.0486 178.986 32.0291L178.816 30.245C178.534 27.9795 177.911 26.2803 176.948 25.1475C175.987 23.9581 174.514 23.3634 172.533 23.3634C170.722 23.3634 169.194 23.8732 167.947 24.8926C166.758 25.9121 166.052 27.4132 165.824 29.3954C165.485 30.8681 164.863 31.9725 163.956 32.7088C163.051 33.4452 161.777 33.8132 160.135 33.8132C159.116 33.8132 158.211 33.4452 157.418 32.7088C156.627 31.9725 156.229 30.9814 156.229 29.7352C156.229 27.4697 157.078 25.4308 158.777 23.6183C160.533 21.8059 162.852 20.3899 165.74 19.3704C168.684 18.2943 171.911 17.7562 175.42 17.7562C179.043 17.7562 181.958 18.3227 184.166 19.4553C186.373 20.5882 188.015 22.2024 189.09 24.2979C190.223 26.3369 190.987 28.9424 191.383 32.1141L193.336 47.4065C193.62 49.2755 193.959 50.5499 194.355 51.2296C194.808 51.8526 195.403 52.1641 196.138 52.1641C196.592 52.1641 196.96 52.0791 197.242 51.9092C197.582 51.7393 197.894 51.5412 198.176 51.3145C198.346 51.2013 198.516 51.088 198.686 50.9747C198.855 50.8048 199.054 50.7198 199.28 50.7198C200.356 50.7198 200.893 51.3995 200.893 52.7588C200.893 53.9482 200.497 55.166 199.704 56.412C198.913 57.6014 197.809 58.6209 196.393 59.4705C195.034 60.2635 193.506 60.6599 191.808 60.6599C189.43 60.6599 187.591 60.1501 186.288 59.1306C185.043 58.0546 184.081 56.4969 183.401 54.458C183.345 54.2315 183.231 54.0332 183.062 53.8633C182.949 53.6933 182.807 53.6084 182.637 53.6084C182.467 53.6084 182.156 53.92 181.703 54.5429C180.458 56.2421 178.816 57.7431 176.778 59.0457C174.74 60.3484 171.598 60.9997 167.353 60.9997ZM173.042 54.0332C174.57 54.0332 175.958 53.5802 177.203 52.6738C178.505 51.7677 179.468 50.5217 180.09 48.9357C180.713 47.2933 180.883 45.4524 180.599 43.4134L180.429 42.394C180.317 41.7143 180.147 41.1763 179.92 40.7798C179.694 40.3833 179.326 40.1001 178.816 39.9302C178.307 39.7603 177.571 39.6753 176.608 39.6753C176.326 39.6753 176.043 39.6753 175.759 39.6753C175.477 39.6753 175.194 39.6753 174.91 39.6753C171.911 39.6753 169.703 40.3267 168.287 41.6293C166.928 42.9321 166.249 44.6878 166.249 46.8967C166.249 49.2189 166.843 51.0031 168.032 52.2491C169.221 53.4385 170.892 54.0332 173.042 54.0332ZM129.026 60.3202C127.271 60.3202 125.94 60.0653 125.035 59.5556C124.186 59.0458 123.478 58.1113 122.912 56.752C121.836 53.9767 120.223 49.5589 118.072 43.4985C117.166 40.9498 116.232 38.3161 115.27 35.5975C114.307 32.8788 113.373 30.4434 112.468 28.2911C112.071 27.3283 111.704 26.5919 111.364 26.0822C111.024 25.5159 110.656 25.1194 110.26 24.8928C109.864 24.6097 109.326 24.3265 108.647 24.0432C108.024 23.7034 107.543 23.3353 107.203 22.9388C106.92 22.5423 106.779 22.0042 106.779 21.3246C106.779 20.0786 107.288 19.2856 108.307 18.9457C109.326 18.6059 111.166 18.436 113.826 18.436C115.808 18.4927 117.591 18.521 119.176 18.521C120.761 18.521 122.459 18.4927 124.271 18.436C126.252 18.436 127.752 18.5493 128.771 18.7758C129.79 19.0025 130.469 19.3139 130.809 19.7104C131.148 20.0502 131.318 20.5599 131.318 21.2396C131.318 21.7494 131.12 22.2591 130.724 22.7688C130.384 23.222 129.875 23.6184 129.196 23.9583C128.233 24.1282 127.441 24.383 126.818 24.7229C126.252 25.0061 125.856 25.3743 125.629 25.8273C125.459 26.2805 125.488 26.8468 125.714 27.5265C126.846 30.8682 128.375 35.2576 130.299 40.6949C130.696 41.9411 131.573 44.2915 132.932 47.7464C133.158 48.3129 133.441 48.596 133.781 48.596C134.177 48.596 134.573 48.3129 134.97 47.7464C138.649 43.1587 140.687 39.1091 141.083 35.5975C141.31 33.8983 141.253 32.454 140.913 31.2646C140.574 30.0186 139.894 28.9142 138.876 27.9513C137.913 26.8752 137.234 25.8841 136.838 24.9777C136.498 24.0716 136.328 23.1654 136.328 22.2591C136.328 21.0131 136.809 19.9652 137.772 19.1157C138.791 18.2661 139.951 17.8413 141.253 17.8413C142.838 17.8413 144.225 18.2379 145.414 19.0307C146.659 19.8237 147.622 20.9847 148.301 22.514C148.98 24.0432 149.32 25.8841 149.32 28.0362C149.32 30.6417 148.725 33.5585 147.537 36.7869C146.348 39.9587 144.848 43.1305 143.036 46.3022C141.225 49.474 139.272 52.3625 137.177 54.9678C135.705 56.9502 134.432 58.3379 133.356 59.1308C132.337 59.9238 131.092 60.3202 129.62 60.3202H129.026ZM88.9896 61C84.6875 61 80.923 60.0089 77.6963 58.0265C74.4696 56.0441 72.0071 53.4104 70.3089 50.1254C68.6107 46.7837 67.7615 43.1023 67.7615 39.0809C67.7615 34.9463 68.7239 31.2648 70.6486 28.0364C72.6299 24.808 75.2622 22.3158 78.5454 20.5601C81.8853 18.8043 85.48 17.9264 89.3293 17.9264C92.8956 17.9264 96.0092 18.6626 98.6697 20.1353C101.387 21.6079 103.425 23.477 104.783 25.7425C106.199 28.008 106.906 30.2453 106.906 32.4542C106.906 34.5498 106.397 36.079 105.378 37.0419C104.415 37.9481 102.689 38.5711 100.198 38.911L83.2156 41.3747C82.6496 41.4313 82.2533 41.573 82.0268 41.7995C81.8004 41.9694 81.6872 42.2809 81.6872 42.7341C81.6872 44.2067 82.1117 45.7076 82.9609 47.2368C83.8667 48.7661 85.1969 50.0688 86.9517 51.1449C88.7067 52.1644 90.7162 52.6741 92.9805 52.6741C95.4713 52.6741 97.6507 52.1644 99.5188 51.1449C101.444 50.1254 102.972 48.9076 104.104 47.4917C104.161 47.4351 104.189 47.4067 104.189 47.4067C104.585 46.9536 105.01 46.7271 105.463 46.7271C106.312 46.7271 106.878 47.0386 107.161 47.6616C107.444 48.2847 107.472 48.9076 107.246 49.5307C106.567 51.5131 105.434 53.3822 103.849 55.1379C102.321 56.8371 100.283 58.253 97.7356 59.3858C95.2449 60.4619 92.3296 61 88.9896 61ZM92.6409 34.1533C93.6033 33.9834 94.2826 33.7002 94.6788 33.3038C95.075 32.9073 95.2732 32.3409 95.2732 31.6046C95.2732 30.4152 94.9619 29.1692 94.3391 27.8665C93.7165 26.5637 92.8107 25.4876 91.6219 24.6381C90.4899 23.7885 89.1878 23.3637 87.716 23.3637C86.3008 23.3637 85.0271 23.7601 83.8949 24.5531C82.7628 25.2894 81.857 26.3938 81.1777 27.8665C80.5551 29.3391 80.2437 31.0949 80.2437 33.1338C80.2437 34.5498 80.3853 35.3993 80.6682 35.6826C81.0079 35.9658 81.6023 36.0224 82.4514 35.8525L92.6409 34.1533ZM50.1996 60.49C47.8786 60.49 46.0955 60.3766 44.8502 60.1501C43.6048 59.9236 42.7273 59.612 42.2179 59.2156C41.7649 58.8192 41.5386 58.2811 41.5386 57.6014C41.5386 56.5819 42.1046 55.8173 43.2368 55.3075C44.5954 54.7978 45.5294 54.2031 46.0389 53.5234C46.605 52.8438 46.973 52.0508 47.1428 51.1446C47.3126 50.1817 47.3975 48.7658 47.3975 46.8967V12.3189C47.3975 10.9596 47.2277 9.94006 46.888 9.2604C46.605 8.58074 46.0106 8.21259 45.1049 8.15595C44.8218 8.09931 44.5105 8.07099 44.1708 8.07099C43.8878 8.01436 43.6048 7.95771 43.3217 7.90107C42.5859 7.78781 42.0197 7.61789 41.6235 7.39133C41.2838 7.10814 41.114 6.71166 41.114 6.20192C41.114 5.40899 41.3971 4.81428 41.9631 4.4178C42.5292 4.02134 43.4066 3.59655 44.5954 3.14344C45.7842 2.69032 47.0013 2.26554 48.2466 1.86907C49.5487 1.41596 50.7375 1.04782 51.813 0.764622C53.7943 0.254873 55.3509 0 56.4832 0C57.6719 0 58.521 0.226555 59.0305 0.679664C59.5966 1.07613 59.8797 1.84075 59.8797 2.97352V46.8118C59.8797 48.6808 59.9362 50.0967 60.0495 51.0596C60.2193 51.9658 60.5873 52.7588 61.1533 53.4385C61.7194 54.1181 62.6534 54.7128 63.9554 55.2226C64.5215 55.5058 64.9744 55.8456 65.314 56.2421C65.6537 56.5819 65.8235 57.0351 65.8235 57.6014C65.8235 58.2811 65.5971 58.8192 65.1442 59.2156C64.748 59.612 63.9271 59.9236 62.6818 60.1501C61.493 60.3766 59.7098 60.49 57.3323 60.49C56.1435 60.49 54.9547 60.49 53.766 60.49C52.5772 60.49 51.3884 60.49 50.1996 60.49ZM21.2281 61C16.9259 61 13.1614 60.0089 9.93475 58.0265C6.70808 56.0441 4.24562 53.4104 2.54737 50.1254C0.849126 46.7837 0 43.1023 0 39.0809C0 34.9463 0.962347 31.2648 2.88702 28.0364C4.86832 24.808 7.5006 22.3158 10.7839 20.5601C14.1238 18.8043 17.7183 17.9264 21.5677 17.9264C25.1341 17.9264 28.2475 18.6626 30.9081 20.1353C33.6253 21.6079 35.6632 23.477 37.0218 25.7425C38.437 28.008 39.1446 30.2453 39.1446 32.4542C39.1446 34.5498 38.6351 36.079 37.6162 37.0419C36.6538 37.9481 34.9273 38.5711 32.4365 38.911L15.454 41.3747C14.888 41.4313 14.4917 41.573 14.2653 41.7995C14.0389 41.9694 13.9256 42.2809 13.9256 42.7341C13.9256 44.2067 14.3502 45.7076 15.1993 47.2368C16.105 48.7661 17.4354 50.0688 19.1902 51.1449C20.945 52.1644 22.9547 52.6741 25.219 52.6741C27.7098 52.6741 29.8892 52.1644 31.7572 51.1449C33.6819 50.1254 35.2103 48.9076 36.3425 47.4917C36.3991 47.4351 36.4274 47.4067 36.4274 47.4067C36.8236 46.9536 37.2482 46.7271 37.7011 46.7271C38.5502 46.7271 39.1163 47.0386 39.3993 47.6616C39.6824 48.2847 39.7106 48.9076 39.4843 49.5307C38.805 51.5131 37.6727 53.3822 36.0878 55.1379C34.5593 56.8371 32.5214 58.253 29.9741 59.3858C27.4833 60.4619 24.568 61 21.2281 61ZM24.8793 34.1533C25.8417 33.9834 26.521 33.7002 26.9172 33.3038C27.3134 32.9073 27.5116 32.3409 27.5116 31.6046C27.5116 30.4152 27.2003 29.1692 26.5776 27.8665C25.9548 26.5637 25.0492 25.4876 23.8604 24.6381C22.7282 23.7885 21.4263 23.3637 19.9544 23.3637C18.5392 23.3637 17.2656 23.7601 16.1333 24.5531C15.0011 25.2894 14.0954 26.3938 13.4162 27.8665C12.7935 29.3391 12.4821 31.0949 12.4821 33.1338C12.4821 34.5498 12.6236 35.3993 12.9067 35.6826C13.2463 35.9658 13.8407 36.0224 14.6898 35.8525L24.8793 34.1533ZM208 44.1403C208 44.424 207.972 44.7049 207.917 44.9831C207.862 45.2613 207.78 45.5314 207.671 45.7935C207.563 46.0555 207.43 46.3045 207.272 46.5403C207.115 46.7762 206.936 46.9944 206.735 47.195C206.535 47.3955 206.317 47.5746 206.081 47.7322C205.845 47.8898 205.597 48.0228 205.335 48.1314C205.073 48.2399 204.803 48.3219 204.525 48.3772C204.247 48.4326 203.966 48.4602 203.682 48.4602C203.399 48.4602 203.118 48.4326 202.84 48.3772C202.562 48.3219 202.292 48.2399 202.03 48.1314C201.768 48.0228 201.519 47.8898 201.284 47.7322C201.048 47.5746 200.83 47.3955 200.629 47.195C200.429 46.9944 200.25 46.7762 200.092 46.5403C199.935 46.3045 199.802 46.0555 199.693 45.7935C199.585 45.5314 199.503 45.2613 199.448 44.9831C199.392 44.7049 199.365 44.424 199.365 44.1403C199.365 43.8567 199.392 43.5758 199.448 43.2976C199.503 43.0194 199.585 42.7492 199.693 42.4872C199.802 42.2251 199.935 41.9762 200.092 41.7403C200.25 41.5045 200.429 41.2863 200.629 41.0857C200.83 40.8851 201.048 40.7061 201.284 40.5485C201.519 40.3909 201.768 40.2578 202.03 40.1493C202.292 40.0407 202.562 39.9588 202.84 39.9035C203.118 39.8481 203.399 39.8204 203.682 39.8204C203.966 39.8204 204.247 39.8481 204.525 39.9035C204.803 39.9588 205.073 40.0407 205.335 40.1493C205.597 40.2578 205.845 40.3909 206.081 40.5485C206.317 40.7061 206.535 40.8851 206.735 41.0857C206.936 41.2863 207.115 41.5045 207.272 41.7403C207.43 41.9762 207.563 42.2251 207.671 42.4872C207.78 42.7492 207.862 43.0194 207.917 43.2976C207.972 43.5758 208 43.8567 208 44.1403Z" fill="#F8486D"/>
</svg>
