<svg width="729" height="403" viewBox="0 0 729 403" fill="none" xmlns="http://www.w3.org/2000/svg">
<mask id="mask0_275_955" style="mask-type:luminance" maskUnits="userSpaceOnUse" x="474" y="96" width="255" height="307">
<path d="M474.755 96.6562H728.167V402.255H474.755V96.6562Z" fill="white"/>
</mask>
<g mask="url(#mask0_275_955)">
<path d="M721.932 193.797C716.62 176.714 708.198 161.068 696.885 147.286C685.172 133.016 670.87 121.391 654.385 112.729C637.891 104.068 620.187 98.8906 601.771 97.3333C583.974 95.8281 566.271 97.7552 549.146 103.057C544.76 104.411 540.469 105.979 536.276 107.734C537.901 112.432 539.323 117.182 540.547 121.974C544.755 120.146 549.088 118.536 553.536 117.161C565.594 113.432 577.932 111.583 590.203 111.583C609.943 111.583 629.521 116.365 647.484 125.802C707.625 157.385 730.797 231.891 699.13 291.88C672.411 342.505 612.922 368.318 557.677 353.271C555.578 352.693 553.328 353.073 551.531 354.307L512.88 380.823L512.922 334.026C512.922 331.854 511.963 329.792 510.297 328.385C500.87 320.422 492.906 311.219 486.474 301.177C482.781 304.521 478.943 307.724 474.984 310.755C481.521 320.604 489.266 329.526 498.109 337.38L498.057 394.859C498.057 397.604 499.578 400.12 502.01 401.401C503.099 401.969 504.281 402.25 505.463 402.25C506.937 402.25 508.401 401.813 509.661 400.953L557.141 368.385C571.146 371.828 585.547 373.036 600.005 371.984C615.318 370.87 630.255 367.245 644.396 361.219C658.667 355.135 671.687 346.786 683.104 336.406C694.917 325.667 704.719 312.995 712.234 298.76C720.922 282.313 726.109 264.651 727.672 246.281C729.177 228.536 727.25 210.88 721.932 193.797Z" fill="#94AB0B"/>
</g>
<mask id="mask1_275_955" style="mask-type:luminance" maskUnits="userSpaceOnUse" x="0" y="96" width="255" height="307">
<path d="M0.234375 96.6562H254.656V402.255H0.234375V96.6562Z" fill="white"/>
</mask>
<g mask="url(#mask1_275_955)">
<path d="M218.099 328.385C216.443 329.792 215.479 331.854 215.479 334.026L215.526 380.823L176.865 354.307C175.62 353.453 174.151 353.005 172.672 353.005C172.021 353.005 171.365 353.094 170.719 353.271C115.474 368.318 55.9844 342.505 29.2656 291.88C-2.40104 231.891 20.7708 157.385 80.9115 125.802C110.052 110.5 143.417 107.432 174.859 117.161C179.313 118.536 183.641 120.146 187.849 121.974C189.073 117.182 190.495 112.432 192.125 107.734C187.927 105.979 183.635 104.411 179.25 103.057C162.125 97.7552 144.422 95.8281 126.635 97.3333C108.208 98.8906 90.5052 104.068 74.0208 112.729C57.526 121.391 43.224 133.016 31.5156 147.286C20.2083 161.068 11.776 176.714 6.46354 193.797C1.15104 210.88 -0.776043 228.536 0.729167 246.281C2.28646 264.651 7.48438 282.313 16.1667 298.76C23.6771 312.995 33.4792 325.667 45.2969 336.406C56.7135 346.786 69.7396 355.135 84 361.219C98.1458 367.245 113.083 370.87 128.396 371.984C142.849 373.036 157.25 371.828 171.26 368.385L218.745 400.953C220 401.813 221.464 402.25 222.938 402.25C224.115 402.25 225.297 401.969 226.385 401.401C228.818 400.12 230.339 397.604 230.339 394.859L230.292 337.38C239.13 329.526 246.88 320.604 253.417 310.755C249.453 307.724 245.625 304.521 241.922 301.177C235.495 311.219 227.531 320.422 218.099 328.385Z" fill="#94AB0B"/>
</g>
<path d="M392.156 318.12L364.203 371.187L336.25 318.12C335.234 316.203 333.417 314.818 331.292 314.344C262.568 299.172 212.687 237.115 212.687 166.797C212.687 83.4583 280.651 15.6666 364.203 15.6666C447.745 15.6666 515.708 83.4583 515.708 166.797C515.708 237.115 465.833 299.172 397.104 314.344C394.979 314.818 393.161 316.203 392.156 318.12ZM452.088 307.661C467.781 297.901 481.667 285.677 493.349 271.333C505.135 256.865 514.318 240.682 520.646 223.224C527.193 205.156 530.521 186.172 530.521 166.797C530.521 144.401 526.12 122.677 517.448 102.213C509.068 82.4583 497.078 64.7187 481.807 49.4843C466.531 34.2499 448.745 22.2916 428.943 13.9322C408.427 5.28638 386.646 0.895752 364.203 0.895752C341.75 0.895752 319.969 5.28638 299.458 13.9322C279.651 22.2916 261.865 34.2499 246.594 49.4843C231.323 64.7187 219.328 82.4583 210.953 102.213C202.281 122.677 197.88 144.401 197.88 166.797C197.88 186.172 201.203 205.156 207.75 223.224C214.078 240.682 223.266 256.865 235.047 271.333C246.734 285.677 260.615 297.901 276.307 307.661C291.318 317 307.594 323.828 324.719 327.99L357.646 390.5C358.927 392.927 361.453 394.453 364.203 394.453C366.953 394.453 369.474 392.927 370.75 390.5L403.682 327.99C420.807 323.828 437.078 317 452.088 307.661Z" fill="#94AB0B"/>
<path d="M429.505 184.745L365.542 249.75C364.661 250.62 363.937 250.62 363.057 249.75L299.094 184.745C267.068 149.781 312.828 98.3698 351.536 133.75L364.297 146.74L377.068 133.75C415.969 98.2813 461.349 149.807 429.505 184.745ZM438.109 116.547C417.031 98.8646 384.469 101.521 364.297 122C307.547 70.1459 239.255 145.052 286.625 197.01L350.588 262.01C357.771 269.646 370.833 269.677 378.01 262.042L441.974 197.042C461.484 177.146 465.573 139.609 438.109 116.547Z" fill="#94AB0B"/>
<path d="M622.547 247.552L628.474 282.062L597.396 265.776L566.323 282.062L572.25 247.552L547.099 223.104L581.849 218.073L597.396 186.646L612.948 218.073L647.698 223.104L622.547 247.552ZM657.422 212.437L620.896 207.12L604.573 174.109C601.646 168.224 593.172 168.146 590.224 174.109L573.891 207.12L537.37 212.437C530.818 213.38 528.198 221.437 532.943 226.052L559.37 251.734L553.12 288.021C551.995 294.578 558.922 299.495 564.724 296.427L597.396 279.291L630.073 296.427C635.875 299.469 642.802 294.578 641.677 288.021L635.422 251.734L661.849 226.052C666.599 221.437 663.974 213.38 657.422 212.437Z" fill="#94AB0B"/>
<path d="M96.9686 278.562C96.9686 281.87 94.2863 284.547 90.9686 284.547C83.0155 284.229 83.0155 272.891 90.9686 272.578C94.2863 272.578 96.9686 275.26 96.9686 278.562ZM176.104 255.75C179.245 261.021 176.417 268.073 172.62 270.109C174.542 282.271 168.213 286.542 159.338 286.542H149.885C131.974 286.542 120.37 277.109 106.974 277.109V230.682H109.698C116.797 230.682 126.698 213.005 133.338 206.38C140.432 199.302 138.062 187.516 142.792 182.802C154.609 182.802 154.609 191.026 154.609 196.948C154.609 206.719 147.521 211.094 147.521 220.526H173.521C178.797 220.526 182.953 225.24 182.974 229.958C183 234.672 179.766 239.385 177.406 239.385C180.781 243.016 181.5 250.667 176.104 255.75ZM191.542 242.328C200.349 228.401 191.354 208.833 173.521 208.557H164.396C165.63 205.365 166.609 201.542 166.609 196.948C166.609 178.797 157.193 170.833 142.792 170.833C127.391 170.833 128.266 194.505 124.854 197.917C119.161 203.588 112.448 214.484 107.661 218.713H82.9686C78.552 218.713 74.9686 222.292 74.9686 226.693V286.542C74.9686 290.953 78.552 294.526 82.9686 294.526H98.9738C102.693 294.526 105.823 291.984 106.713 288.552C117.844 288.797 125.484 298.51 151.167 298.51C152.974 298.51 154.974 298.516 156.724 298.516C176.005 298.516 184.719 288.682 184.963 274.74C188.292 270.146 190.036 263.99 189.292 258.036C191.76 253.437 192.708 247.974 191.542 242.328Z" fill="#94AB0B"/>
</svg>
